<?xml version="1.0" ?>
<!-- Uploaded to: SVG Repo, www.svgrepo.com, Generator: SVG Repo Mixer Tools -->
<svg fill="#000000" width="800px" height="800px" viewBox="-9 0 33.752 33.752" xmlns="http://www.w3.org/2000/svg">
<g transform="translate(-488.748 -513.185)">
<path d="M502.465,546.937H490.781a2.035,2.035,0,0,1-2.033-2.032V515.218a2.035,2.035,0,0,1,2.033-2.033h11.684a2.035,2.035,0,0,1,2.033,2.033v29.687A2.035,2.035,0,0,1,502.465,546.937Zm-11.684-31.752-.033,29.72,11.717.032.033-29.719a.032.032,0,0,0-.033-.033Z"/>
<path d="M495.5,519h-5.75a1,1,0,1,1,0-2h5.75a1,1,0,0,1,0,2Z"/>
<path d="M493.56,523h-3.812a1,1,0,1,1,0-2h3.812a1,1,0,0,1,0,2Z"/>
<path d="M493.56,527.062h-3.812a1,1,0,1,1,0-2h3.812a1,1,0,0,1,0,2Z"/>
<path d="M495.5,531h-5.75a1,1,0,1,1,0-2h5.75a1,1,0,0,1,0,2Z"/>
<path d="M493.56,534.875h-3.812a1,1,0,1,1,0-2h3.812a1,1,0,0,1,0,2Z"/>
<path d="M493.56,538.937h-3.812a1,1,0,1,1,0-2h3.812a1,1,0,0,1,0,2Z"/>
<path d="M495.5,543h-5.75a1,1,0,1,1,0-2h5.75a1,1,0,0,1,0,2Z"/>
</g>
</svg>