<?xml version="1.0" encoding="utf-8"?><!-- Uploaded to: SVG Repo, www.svgrepo.com, Generator: SVG Repo Mixer Tools -->
<svg width="800px" height="800px" viewBox="0 0 24 24" fill="none" xmlns="http://www.w3.org/2000/svg">
<path d="M7 7C6.44772 7 6 7.44772 6 8C6 8.55228 6.44772 9 7 9H13C13.5523 9 14 8.55228 14 8C14 7.44772 13.5523 7 13 7H7Z" fill="#ffffff"/>
<path d="M6 12C6 11.4477 6.44772 11 7 11H13C13.5523 11 14 11.4477 14 12C14 12.5523 13.5523 13 13 13H7C6.44772 13 6 12.5523 6 12Z" fill="#ffffff"/>
<path d="M7 15C6.44772 15 6 15.4477 6 16C6 16.5523 6.44772 17 7 17H13C13.5523 17 14 16.5523 14 16C14 15.4477 13.5523 15 13 15H7Z" fill="#ffffff"/>
<path fill-rule="evenodd" clip-rule="evenodd" d="M5.625 21H18.375C20.3918 21 22 19.3435 22 17.3333V6.66667C22 4.65653 20.3918 3 18.375 3H5.625C3.60818 3 2 4.65653 2 6.66667V17.3333C2 19.3435 3.60818 21 5.625 21ZM5.625 5C4.74233 5 4 5.73129 4 6.66667V17.3333C4 18.2687 4.74233 19 5.625 19H14.375C15.2577 19 16 18.2687 16 17.3333V6.66667C16 5.73129 15.2577 5 14.375 5H5.625ZM18.375 19H17.6042C17.8575 18.4987 18 17.9317 18 17.3333V6.66667C18 6.06833 17.8575 5.50132 17.6042 5H18.375C19.2577 5 20 5.73129 20 6.66667V17.3333C20 18.2687 19.2577 19 18.375 19Z" fill="#ffffff"/>
</svg>
