<?xml version="1.0" encoding="utf-8"?><!-- Uploaded to: SVG Repo, www.svgrepo.com, Generator: SVG Repo Mixer Tools -->
<svg width="800px" height="800px" viewBox="0 0 24 24" fill="none" xmlns="http://www.w3.org/2000/svg">
<path fill-rule="evenodd" clip-rule="evenodd" d="M3.13029 0.998413C2.56505 0.998413 2.02295 1.22296 1.62326 1.62265C1.22357 2.02234 0.999023 2.56444 0.999023 3.12968V9.05761C0.999225 9.99957 1.37364 10.903 2.03979 11.569L13.056 22.5852C13.2378 22.767 13.4655 22.8961 13.7149 22.9588C13.9643 23.0214 14.2262 23.0152 14.4724 22.9407C14.7186 22.8662 14.9399 22.7263 15.1128 22.5358C15.2858 22.3454 15.4037 22.1116 15.4542 21.8593L16.5217 16.5211L21.86 15.4536C22.1122 15.4031 22.346 15.2851 22.5364 15.1122C22.7269 14.9393 22.8668 14.718 22.9413 14.4717C23.0158 14.2255 23.022 13.9637 22.9594 13.7143C22.8967 13.4649 22.7676 13.2372 22.5858 13.0554L11.5695 2.03911C10.9035 1.37296 10 0.998614 9.05806 0.998413H3.13029Z" stroke="#71717A" stroke-width="1.5" stroke-linecap="round" stroke-linejoin="round"/>
<path fill-rule="evenodd" clip-rule="evenodd" d="M4.74512 6.65954C4.74512 5.60171 5.60266 4.74417 6.66048 4.74417C7.71831 4.74417 8.57585 5.60171 8.57585 6.65954C8.57585 7.71736 7.71831 8.5749 6.66048 8.5749C5.60266 8.5749 4.74512 7.71736 4.74512 6.65954Z" stroke="#71717A" stroke-width="1.5" stroke-linecap="round" stroke-linejoin="round"/>
</svg>